<svg xmlns="http://www.w3.org/2000/svg" xmlns:svg="http://www.w3.org/2000/svg" id="svg54" width="24" height="23.35" version="1.1" viewBox="0 0 24 23.35"><metadata id="metadata58"/><defs id="defs42"><style id="style40">.cls-2{fill:#004880}</style></defs><title id="title44">Logo</title><g id="mark"><path id="mark-2" d="M 17.87,4.34 H 11.19 A 6.16,6.16 0 0 0 5,10.51 v 6.68 a 6.16,6.16 0 0 0 6.16,6.16 h 6.68 A 6.16,6.16 0 0 0 24,17.18 V 10.51 A 6.16,6.16 0 0 0 17.87,4.34 Z m -8.16,7.8 a 2.5,2.5 0 1 1 2.5,-2.5 2.5,2.5 0 0 1 -2.5,2.51 z m 8,9.17 a 4,4 0 1 1 4,-4 4,4 0 0 1 -4.02,4.01 z" class="cls-2" data-name="mark"/><circle id="circle49" cx="2" cy="2" r="2" class="cls-2"/></g></svg>