<svg xmlns="http://www.w3.org/2000/svg" width="574" height="396" viewBox="0 0 444.02 288.03"><defs><style>.cls-1,.cls-2,.cls-3,.cls-5{fill:none;stroke-width:3px}.cls-1,.cls-2{stroke:#9ebbe2}.cls-1,.cls-2,.cls-3,.cls-4,.cls-5{stroke-linejoin:round}.cls-2,.cls-5{stroke-linecap:round}.cls-3,.cls-4,.cls-5{stroke:#fff}.cls-4{fill:#fff}@media screen and (-ms-high-contrast:active){.cls-3,.cls-4,.cls-5{stroke:windowText}.cls-4{fill:windowText}}</style></defs><title>Hero Image v7</title><g id="Layer_2" data-name="Layer 2"><g id="Hero"><g id="chip"><polygon points="215.98 176.65 289.6 134.15 289.6 124.15 250.63 101.65 177.01 144.15 177.01 154.15 215.98 176.65" class="cls-1"/><polygon points="177.01 144.15 215.99 166.65 215.98 176.65 177.01 154.15 177.01 144.15" class="cls-1"/><polygon points="215.99 166.65 289.6 124.15 289.6 134.15 215.98 176.65 215.99 166.65" class="cls-1"/><g id="clips"><polyline points="280.94 134.15 289.52 139.1 289.52 144.19" class="cls-2"/><polyline id="_7" points="272.31 139.12 280.94 144.15 281.01 149.1" class="cls-2" data-name="7"/><polyline id="_6" points="263.62 143.65 272.2 149.1 272.31 154.17" class="cls-2" data-name="6"/><polyline id="_5" points="255.03 149.1 263.62 154.15 263.65 159.17" class="cls-2" data-name="5"/><polyline id="_4" points="246.3 154.15 254.85 159.09 255.03 164.19" class="cls-2" data-name="4"/><polyline id="_3" points="237.63 159.15 246.3 164.15 246.3 169.15" class="cls-2" data-name="3"/><polyline id="_2" points="228.97 164.15 237.63 169.15 237.63 174.15" class="cls-2" data-name="2"/><polyline id="_1" points="220.31 169.15 228.97 174.15 228.97 179.15" class="cls-2" data-name="1"/></g><g id="clips-2" data-name="clips"><polyline points="181.34 146.65 172.68 141.65 172.68 146.65" class="cls-2"/><polyline points="185.76 139.18 181.34 136.62 181.34 141.62" class="cls-2"/><polyline points="194.42 134.2 190 131.65 190 136.65" class="cls-2"/><polyline points="203.1 129.2 198.68 126.65 198.68 131.65" class="cls-2"/><polyline points="207.41 126.65 207.32 121.65 211.66 124.15" class="cls-2"/><polyline points="215.98 121.65 215.98 116.65 220.31 119.15" class="cls-2"/><polyline points="224.65 116.65 224.65 111.65 228.97 114.15" class="cls-2"/><polyline points="233.3 111.65 233.31 106.65 237.64 109.15" class="cls-2"/><polyline points="241.97 106.65 241.97 101.65 246.3 104.15" class="cls-2"/></g><g id="clips_copy_2" data-name="clips copy 2"><polyline id="_4-2" points="181.43 151.65 172.88 156.59 172.7 161.69" class="cls-2" data-name="4"/><polyline id="_3-2" points="190.09 156.65 181.43 161.65 181.43 166.65" class="cls-2" data-name="3"/><polyline id="_2-2" points="198.75 161.65 190.09 166.65 190.09 171.65" class="cls-2" data-name="2"/><polyline id="_1-2" points="207.41 166.65 198.75 171.65 198.75 176.65" class="cls-2" data-name="1"/></g><g id="clipsBack"><polyline points="255.03 104.1 259.29 101.65 259.29 106.65" class="cls-2"/><polyline points="263.62 109.15 267.97 106.66 267.97 111.65" class="cls-2"/><polyline points="272.28 114.15 276.66 111.68 276.61 116.65" class="cls-2"/><polyline points="280.94 119.15 285.23 116.67 285.27 121.65" class="cls-2"/></g></g><g id="chips"><g id="_2-3" data-name="2"><polygon points="315.33 118.95 345.56 101.5 345.56 96.5 328.24 86.5 297.97 103.98 297.97 109.02 315.33 118.95" class="cls-2"/><polygon points="315.33 113.95 345.56 96.5 345.56 101.5 315.33 118.95 315.33 113.95" class="cls-2"/><polygon points="297.97 103.98 315.33 113.95 315.33 118.95 297.97 109.02 297.97 103.98" class="cls-2"/></g><g id="_1-3" data-name="1"><polygon points="280.76 98.94 311 81.48 311 76.48 293.68 66.48 263.4 83.96 263.4 89 280.76 98.94" class="cls-2"/><polygon points="280.76 93.94 311 76.48 311 81.48 280.76 98.94 280.76 93.94" class="cls-2"/><polygon points="263.4 83.96 280.76 93.94 280.76 98.94 263.4 89 263.4 83.96" class="cls-2"/></g></g><g id="wires"><path d="M290,189.15c-2.38,1.37-2.38,3.62,0,5a9.61,9.61,0,0,0,8.66,0c2.38-1.38,2.38-3.63,0-5A9.61,9.61,0,0,0,290,189.15Z" class="cls-1" transform="translate(-9.54)"/><line x1="250.94" x2="280.5" y1="172.15" y2="189.15" class="cls-2"/><path d="M189.68,241.53c-2.38,1.37-2.38,3.62,0,5a9.61,9.61,0,0,0,8.66,0c2.38-1.38,2.38-3.63,0-5A9.61,9.61,0,0,0,189.68,241.53Z" class="cls-1" transform="translate(-9.54)"/><line x1="145.58" x2="180.15" y1="221.53" y2="241.53" class="cls-2"/><polyline points="233.7 182.07 258.93 196.53 198.4 231.48 163.67 211.53" class="cls-2"/><polyline points="155.01 216.53 198.4 241.58 276.26 196.53 242.28 177.03" class="cls-2"/><polyline points="259.6 167.03 302.02 191.65 189.65 256.53 137.69 226.53" class="cls-2"/><line x1="194.12" x2="163.67" y1="178.95" y2="196.53" class="cls-2"/><path d="M199.28,176.58" class="cls-2" transform="translate(-9.54)"/><line x1="185.41" x2="155.69" y1="174.08" y2="191.25" class="cls-2"/><line x1="176.71" x2="155.69" y1="169.05" y2="181.26" class="cls-2"/><line x1="168.07" x2="155.69" y1="164.08" y2="171.09" class="cls-2"/><polyline points="59.79 216.55 16.5 241.58 51.37 261.37" class="cls-2"/><line x1="94.43" x2="51.37" y1="236.55" y2="261.37" class="cls-2"/><polyline points="129.03 231.48 189.65 266.53 302 201.66" class="cls-2"/><polyline points="167.94 109.06 180.97 116.48 150.73 134.15 168.14 144.19" class="cls-2"/><polyline points="176.66 104.03 194.13 114.16 163.77 131.37 176.49 139.12" class="cls-2"/><polyline points="185.46 98.95 206.9 111.53 176.47 129.15 185.12 134.15" class="cls-2"/><polyline points="194.12 93.95 219.96 109.06 189.79 126.67" class="cls-2"/><line x1="202.63" x2="228.59" y1="89.02" y2="103.98" class="cls-2"/><path d="M29.77,229c-2.36-1.41-2.38-3.67,0-5a9.52,9.52,0,0,1,8.59,0c2.38,1.38,2.39,3.64,0,5A9.32,9.32,0,0,1,29.77,229Z" class="cls-2" transform="translate(-9.54)"/><line x1="51.08" x2="29.47" y1="211.53" y2="224.05" class="cls-2"/><path d="M51.67,236.38c-2.36-1.41-2.38-3.67,0-5a9.52,9.52,0,0,1,8.59,0c2.38,1.38,2.39,3.64,0,5A9.32,9.32,0,0,1,51.67,236.38Z" class="cls-2" transform="translate(-9.54)"/><line x1="68.45" x2="51.37" y1="221.53" y2="231.42" class="cls-2"/><path d="M103.56,116.75c-2.36-1.41-2.38-3.67,0-5a9.52,9.52,0,0,1,8.59,0c2.38,1.38,2.39,3.64,0,5A9.32,9.32,0,0,1,103.56,116.75Z" class="cls-2" transform="translate(-9.54)"/><line x1="124.88" x2="103.27" y1="99.27" y2="111.79" class="cls-2"/><polyline points="107.52 89.11 33.76 131.53 68.41 151.53" class="cls-2"/><polyline points="115.89 93.95 51.09 131.53 77.06 146.53" class="cls-2"/><polyline points="133.36 104.03 77.1 136.51 85.73 141.53" class="cls-2"/><polyline points="141.96 109.06 111.89 126.23 163.77 156.47 155.11 161.47" class="cls-2"/><line x1="267.51" x2="293.61" y1="221.49" y2="236.55" class="cls-2"/><polyline points="302.23 241.53 293.57 246.53 258.97 226.55" class="cls-2"/><polyline points="310.89 246.53 293.57 256.53 250.36 231.48" class="cls-2"/><polyline points="319.55 251.53 293.61 266.5 233.04 231.48" class="cls-2"/><polyline points="328.21 256.53 293.57 276.53 215.63 231.61" class="cls-2"/><polyline points="336.87 261.53 293.57 286.53 224.18 246.53" class="cls-2"/><polyline points="77.06 226.53 59.79 236.55 77.06 246.53" class="cls-2"/><polyline points="85.77 231.42 77.11 236.5 85.73 241.53" class="cls-2"/><line x1="258.88" x2="263.4" y1="96.5" y2="93.95" class="cls-2"/><line x1="277.05" x2="310.49" y1="156.96" y2="176.58" class="cls-2"/><line x1="285.5" x2="319.34" y1="151.98" y2="171.41" class="cls-2"/><line x1="294.24" x2="327.98" y1="147.03" y2="166.49" class="cls-2"/><line x1="280.38" x2="271.75" y1="104.15" y2="98.93" class="cls-2"/><line x1="297.71" x2="302.04" y1="93.92" y2="96.5" class="cls-2"/><line x1="306.37" x2="310.7" y1="88.92" y2="91.64" class="cls-2"/><polyline points="280.38 114.15 289.24 109.03 319.55 126.53 336.87 116.53" class="cls-2"/><polyline points="293.33 116.67 319.34 131.41 349.95 114.08 341.25 109.24" class="cls-2"/><line x1="268.54" x2="301.99" y1="162.09" y2="181.72" class="cls-2"/><line x1="280.38" x2="271.75" y1="104.15" y2="108.98" class="cls-2"/><line x1="258.88" x2="267.55" y1="96.5" y2="101.5" class="cls-2"/><line x1="263.4" x2="267.55" y1="104.11" y2="101.5" class="cls-2"/><line x1="332.46" x2="336.87" y1="113.94" y2="116.53" class="cls-2"/><line x1="293.33" x2="289.52" y1="116.67" y2="118.87" class="cls-2"/><path d="M159.69,253.78c-2.38,1.37-2.38,3.62,0,5a9.61,9.61,0,0,0,8.66,0c2.38-1.38,2.38-3.63,0-5A9.61,9.61,0,0,0,159.69,253.78Z" class="cls-1" transform="translate(-9.54)"/><line x1="115.59" x2="150.15" y1="233.78" y2="253.78" class="cls-2"/><path d="M70.92,104.73c-2.36-1.41-2.38-3.67,0-5a9.52,9.52,0,0,1,8.59,0c2.38,1.38,2.39,3.64,0,5A9.32,9.32,0,0,1,70.92,104.73Z" class="cls-2" transform="translate(-9.54)"/><line x1="98.31" x2="70.63" y1="83.74" y2="99.78" class="cls-2"/></g><g id="box2"><polygon points="302 226.49 349.63 253.99 397.37 226.49 397.37 181.43 349.68 153.96 302 181.49 302 226.49" class="cls-3"/><polygon points="349.67 208.96 397.37 181.43 397.37 226.49 349.63 253.99 349.67 208.96" class="cls-3"/><polygon points="302 181.49 349.67 208.96 349.63 253.99 302 226.49 302 181.49" class="cls-3"/><g id="Layer_6_copy" data-name="Layer 6 copy"><polygon points="327.98 166.49 375.61 193.99 375.61 228.99 371.28 231.49 371.28 196.49 323.65 168.99 327.98 166.49" class="cls-4"/><polygon points="371.28 166.49 323.65 193.96 323.65 228.99 327.98 231.49 327.98 196.46 375.61 168.99 371.28 166.49" class="cls-4"/></g><g id="clips_copy_4" data-name="clips copy 4"><polyline points="392.93 223.99 401.59 228.99 401.59 233.99" class="cls-5"/><polyline points="384.27 228.99 392.93 233.99 392.93 238.99" class="cls-5"/><polyline points="375.61 233.99 384.27 238.99 384.27 243.99" class="cls-5"/><polyline points="366.95 238.99 375.61 243.99 375.61 248.99" class="cls-5"/><polyline points="358.29 243.99 366.95 248.99 366.95 253.99" class="cls-5"/><polyline points="349.67 248.96 358.29 253.99 358.29 258.99" class="cls-5"/></g><g id="clipsFront_copy" data-name="clipsFront copy"><polyline points="306.37 223.99 297.71 228.99 297.71 233.99" class="cls-5"/><polyline points="315.03 228.99 306.37 233.99 306.37 238.99" class="cls-5"/><polyline points="323.69 233.99 315.03 238.99 315.03 243.99" class="cls-5"/><polyline points="332.35 238.99 323.69 243.99 323.69 248.99" class="cls-5"/><polyline points="341.01 243.99 332.35 248.99 332.35 253.99" class="cls-5"/><polyline points="349.63 248.96 341.01 253.99 341.01 258.99" class="cls-5"/></g><polyline id="MrClips" points="397.37 221.43 401.59 218.99 401.59 223.99" class="cls-5"/></g><g id="box3"><g id="box"><polygon points="59.74 201.53 107.38 229.03 155.11 201.53 155.11 156.47 107.43 129 59.74 156.53 59.74 201.53" class="cls-3"/><polygon points="107.42 184 155.11 156.47 155.11 201.53 107.38 229.03 107.42 184" class="cls-3"/><polygon points="59.74 156.53 107.42 184 107.38 229.03 59.74 201.53 59.74 156.53" class="cls-3"/><g id="Layer_6" data-name="Layer 6"><polygon points="85.73 141.53 133.36 169.03 133.36 204.03 129.03 206.53 129.03 171.53 81.39 144.03 85.73 141.53" class="cls-4"/><polygon points="129.03 141.53 81.39 169.01 81.39 204.03 85.73 206.53 85.73 171.5 133.36 144.03 129.03 141.53" class="cls-4"/></g><g id="clips-3" data-name="clips"><polyline points="150.68 199.03 159.34 204.03 159.34 209.03" class="cls-5"/><polyline points="142.02 204.03 150.68 209.03 150.68 214.03" class="cls-5"/><polyline points="133.36 209.03 142.02 214.03 142.02 219.03" class="cls-5"/><polyline points="124.7 214.03 133.36 219.03 133.36 224.03" class="cls-5"/><polyline points="116.04 219.03 124.7 224.03 124.7 229.03" class="cls-5"/><polyline points="107.42 224 116.04 229.03 116.04 234.03" class="cls-5"/></g><g id="clipsFront"><polyline points="64.12 199.03 55.46 204.03 55.46 209.03" class="cls-5"/><polyline points="72.78 204.03 64.12 209.03 64.12 214.03" class="cls-5"/><polyline points="81.44 209.03 72.78 214.03 72.78 219.03" class="cls-5"/><polyline points="90.1 214.03 81.44 219.03 81.44 224.03" class="cls-5"/><polyline points="98.76 219.03 90.1 224.03 90.1 229.03" class="cls-5"/><polyline points="107.38 224 98.76 229.03 98.76 234.03" class="cls-5"/></g><polyline id="MrClips-2" points="155.11 196.47 159.34 194.03 159.34 199.03" class="cls-5" data-name="MrClips"/></g><polygon points="107.52 74.03 155.15 101.53 202.88 74.03 202.88 28.97 155.2 1.5 107.52 29.03 107.52 74.03" class="cls-3"/><polygon points="155.19 56.51 202.88 28.97 202.88 74.03 155.15 101.53 155.19 56.51" class="cls-3"/><polygon points="107.52 29.03 155.19 56.51 155.15 101.53 107.52 74.03 107.52 29.03" class="cls-3"/><g id="Layer_6_copy_2" data-name="Layer 6 copy 2"><polygon points="133.5 14.03 181.13 41.53 181.13 76.53 176.8 79.03 176.8 44.03 129.17 16.53 133.5 14.03" class="cls-4"/><polygon points="176.8 14.03 129.17 41.51 129.17 76.53 133.5 79.03 133.5 44 181.13 16.53 176.8 14.03" class="cls-4"/></g><g id="clips_copy_5" data-name="clips copy 5"><polyline points="198.45 71.53 207.11 76.53 207.11 81.53" class="cls-5"/><polyline points="189.79 76.53 198.45 81.53 198.45 86.53" class="cls-5"/><polyline points="181.13 81.53 189.79 86.53 189.79 91.53" class="cls-5"/><polyline points="172.47 86.53 181.13 91.53 181.13 96.53" class="cls-5"/><polyline points="163.81 91.53 172.47 96.53 172.47 101.53" class="cls-5"/><polyline points="155.19 96.5 163.81 101.53 163.81 106.53" class="cls-5"/></g><g id="clipsFront_copy_2" data-name="clipsFront copy 2"><polyline points="111.89 71.53 103.23 76.53 103.23 81.53" class="cls-5"/><polyline points="120.55 76.53 111.89 81.53 111.89 86.53" class="cls-5"/><polyline points="129.21 81.53 120.55 86.53 120.55 91.53" class="cls-5"/><polyline points="137.87 86.53 129.21 91.53 129.21 96.53" class="cls-5"/><polyline points="146.53 91.53 137.87 96.53 137.87 101.53" class="cls-5"/><polyline points="155.15 96.5 146.53 101.53 146.53 106.53" class="cls-5"/></g></g><g id="callouts"><polyline points="406.23 221.49 436.41 204 436.39 134.07" class="cls-5"/><path d="M441.61,127.56c-2.38,1.38-2.38,3.63,0,5a9.61,9.61,0,0,0,8.66,0c2.38-1.37,2.38-3.62,0-5A9.61,9.61,0,0,0,441.61,127.56Z" class="cls-5" transform="translate(-9.54)"/><polyline points="7.88 116.47 7.62 161.47 55.2 189.15" class="cls-5"/><path d="M0,111.53" class="cls-5" transform="translate(-9.54)"/><path d="M12.79,109c-2.35,1.38-2.33,3.63.05,5a9.61,9.61,0,0,0,8.66,0c2.38-1.37,2.36-3.62-.05-5A9.61,9.61,0,0,0,12.79,109Z" class="cls-5" transform="translate(-9.54)"/><path d="M242.42,67.56c-2.38,1.37-2.38,3.62,0,5a9.61,9.61,0,0,0,8.66,0c2.38-1.37,2.38-3.62,0-5A9.61,9.61,0,0,0,242.42,67.56Z" class="cls-5" transform="translate(-9.54)"/><polyline points="237.22 73.99 237.22 98.81 211.33 84.21" class="cls-5"/></g></g></g></svg>