<svg xmlns="http://www.w3.org/2000/svg" xmlns:xlink="http://www.w3.org/1999/xlink" id="Layer_1" x="0" y="0" version="1.1" viewBox="0 0 260 150" xml:space="preserve" style="enable-background:new 0 0 260 150"><style type="text/css">.st0{fill:#b2b2b2}.st113{fill:#282828}.st120{fill:#99bcd7}.st271{fill:#f57800}.st276{fill:#939393}.st277{fill:#ff8c20}.st278{opacity:0;fill:#fff}.st279{fill:#e6e6e6}.st280,.st281{stroke:#000;stroke-miterlimit:8}.st280{fill:none;stroke-linecap:square}.st281{stroke-linecap:round}.st281,.st282,.st283{fill:none}.st283{stroke:#f57800;stroke-miterlimit:8}</style><path d="M16.002,146.92h230.104c1.221,0,2.594-0.932,2.926-2.107c0.597-2.116-1.009-3.893-2.89-3.893l-230.096,0	c-1.054,0-2.08,0.509-2.615,1.417C12.178,144.462,13.737,146.92,16.002,146.92L16.002,146.92z" class="st0"/><g><g><polygon points="181.087 102.366 235.594 101.298 242.176 143.92 239.863 143.92 233.839 104.92 211.742 104.713 217.798 143.92 215.485 143.92 209.461 104.92 182.917 104.671 174.226 143.92 171.885 143.92" class="st276"/><path d="M209.12,52.92c5.39,0,14.991,0,18.779,0c3.788,0,5.682,0.275,6.088,3.306 c1.034,7.72,3.923,34.711,4.464,40.909c0.287,3.293-1.894,5.785-7.846,5.785c-5.952,0-53.481,0-53.481,0s1.699-5,5.528-5 c3.829,0,17.845,0,17.845,0s2.987-33.474,3.369-38.14C204.269,54.841,205.617,52.92,209.12,52.92z" class="st120"/></g><path d="M67.5,81.92v62h2.57c0,0,5.14-45.106,5.911-49.218c0.771-4.112,2.57-5.782,8.352-5.782 c0.359,0,89.651,0,90.011,0c5.788,0,7.589,1.672,8.36,5.788c0.772,4.116,6.083,49.212,6.083,49.212h2.712l-0.164-62H67.5z" class="st271"/><rect width="185" height="4" x="30.5" y="78.92" class="st277"/><g><polygon points="115.838 100.92 165.063 101.215 170.798 143.92 168.656 143.92 163.45 103.92 143.398 103.92 148.845 143.92 146.769 143.92 141.575 103.92 117.877 103.92 109.727 143.92 107.559 143.92" class="st276"/><path d="M141.049,53.676c4.836-0.174,13.066,0,16.454,0c3.388,0,5.081,0.264,5.444,3.164 c0.925,7.39,3.509,33.225,3.992,39.159c0.257,3.152-1.694,5.538-7.017,5.921h-47.524c0-0.384,0-4.998,5.323-5h15.584 c0,0.002,2.682-32.167,3.025-36.652C136.694,55.522,137.875,53.79,141.049,53.676z" class="st120"/></g><g><polygon points="81.095 102.366 26.588 101.298 20.006 143.92 22.319 143.92 28.343 104.92 50.44 104.713 44.384 143.92 46.697 143.92 52.721 104.92 79.265 104.671 87.956 143.92 90.297 143.92" class="st276"/><path d="M53.062,52.92c-5.39,0-14.991,0-18.779,0c-3.788,0-5.682,0.275-6.088,3.306 c-1.034,7.72-3.923,34.711-4.464,40.909c-0.287,3.293,1.894,5.785,7.846,5.785s53.481,0,53.481,0s-1.518-5-5.528-5 s-17.845,0-17.845,0s-2.987-33.474-3.369-38.14C57.913,54.841,56.565,52.92,53.062,52.92z" class="st120"/></g><g><rect width="49" height="50" x="75.5" y="6.92" class="st278"/><ellipse cx="100" cy="31.92" class="st0" rx="25.5" ry="25"/><ellipse cx="100" cy="31.92" class="st279" rx="21.5" ry="21"/><ellipse cx="100" cy="31.92" class="st113" rx="1.5" ry="1"/><line x1="100" x2="100" y1="12.42" y2="52.42" class="st280"/><line x1="81" x2="120" y1="32.42" y2="32.42" class="st280"/><line x1="83" x2="118" y1="22.42" y2="42.42" class="st280"/><line x1="91" x2="110" y1="49.42" y2="15.42" class="st280"/><line x1="90" x2="110" y1="15.42" y2="49.42" class="st280"/><line x1="83" x2="118" y1="42.42" y2="22.42" class="st280"/><ellipse cx="100" cy="31.92" class="st279" rx="16.5" ry="16"/><ellipse cx="100" cy="31.92" class="st113" rx="1.5" ry="1"/><line x1="100" x2="88" y1="32.42" y2="20.42" class="st281"/><line x1="100" x2="110" y1="32.42" y2="32.42" class="st281"/><rect width="49" height="50" x="75.5" y="6.92" class="st282"/><line x1="103" x2="88" y1="29.42" y2="44.42" class="st283"/></g></g></svg>